<svg height="128" viewBox="0 0 128 128" width="128" xmlns="http://www.w3.org/2000/svg"><path d="M117.488 78.948l-10.427-7.741c.026-.158.045-.317.07-.476.011-.065.019-.131.029-.195a42.39 42.39 0 0 0 .257-2.024l.011-.106c.071-.704.125-1.409.16-2.114.003-.03.004-.062.005-.092.034-.698.053-1.396.054-2.094l.002-.105-.002-.117c0-.152.003-.306.001-.458v-.085c-.005-.304-.018-.606-.029-.91l-.026-.561c-.02-.372-.034-.744-.062-1.115-.004-.038-.009-.077-.011-.115-.009-.109-.02-.219-.027-.327-.017-.197-.04-.394-.059-.591l-.013-.128-.008-.074c-.011-.099-.019-.199-.029-.298-.014-.123-.021-.246-.036-.368-.008-.064-.018-.127-.024-.19l-.03-.209a39.952 39.952 0 0 0-.216-1.514c-.007-.044-.01-.088-.017-.132l10.441-7.752a5.178 5.178 0 0 0 1.896-7.074l-8.631-14.949a5.178 5.178 0 0 0-7.074-1.895l-11.936 5.167c-.066-.055-.138-.102-.204-.155l-.092-.075c-.154-.125-.313-.245-.47-.368a30.794 30.794 0 0 0-.513-.398c-.141-.107-.283-.211-.424-.316-.065-.05-.133-.099-.199-.148-.116-.085-.229-.174-.346-.258l-.193-.14c-.162-.115-.326-.226-.49-.339l-.124-.086a42.994 42.994 0 0 0-.935-.627l-.082-.052a43.662 43.662 0 0 0-1.198-.751c-.103-.062-.206-.12-.31-.181a43.143 43.143 0 0 0-2.656-1.451l-.053-.025a43.67 43.67 0 0 0-3.602-1.598l-.102-.04c-.157-.061-.313-.127-.47-.187l-1.493-12.922a5.177 5.177 0 0 0-5.178-5.179H55.365a5.178 5.178 0 0 0-5.178 5.179l-1.493 12.922c-.07.026-.137.056-.207.082-.081.031-.163.064-.244.097-.477.185-.949.376-1.417.577-.084.035-.168.074-.251.11-.424.185-.846.375-1.264.572l-.132.064-.165.077c-.153.074-.305.15-.457.226-.351.175-.698.355-1.043.54-.25.133-.502.264-.751.401-.157.088-.311.182-.467.271l-.036.021c-.029.017-.06.029-.088.046-.051.029-.098.063-.148.091a42.686 42.686 0 0 0-1.859 1.144l-.192.123c-.018.013-.037.023-.054.035-.47.311-.933.632-1.392.961l-.193.139a44.164 44.164 0 0 0-1.775 1.358c-.109.089-.221.172-.329.262l-11.92-5.16a5.18 5.18 0 0 0-7.075 1.896L8.602 41.99a5.18 5.18 0 0 0 1.895 7.076l10.429 7.742c-.021.125-.036.251-.056.376a45.329 45.329 0 0 0-.29 2.208l-.035.351a42.761 42.761 0 0 0-.128 1.594l-.006.124-.007.135c-.007.117-.012.235-.018.353a42.318 42.318 0 0 0-.045 1.815c-.001.085-.007.167-.007.252 0 .092.005.185.005.277v.202c0 .073-.002.146 0 .22.004.247.015.495.024.742.01.321.027.641.044.96.015.269.026.537.046.805l.008.115c.01.133.022.266.033.397.014.171.034.341.05.511.037.385.074.769.121 1.15l.002.016c.07.569.151 1.135.244 1.698.005.032.007.065.013.099L10.498 78.95a5.176 5.176 0 0 0-1.895 7.073l8.63 14.949a5.178 5.178 0 0 0 7.074 1.896l11.918-5.156c.082.068.169.125.251.191.014.013.03.022.044.033 0 .002.002.002.002.003.128.104.26.204.39.307.204.161.408.322.615.479.12.092.241.18.362.271.159.118.317.238.478.355a.98.98 0 0 1 .051.039c.076.055.15.11.227.164.185.132.374.259.561.387.016.013.033.023.049.033a42.59 42.59 0 0 0 2.223 1.439c.119.071.238.14.357.208.853.504 1.723.981 2.612 1.428.03.016.061.029.091.045 1.346.67 2.729 1.28 4.149 1.812l1.492 12.904a5.18 5.18 0 0 0 5.179 5.179l17.261.001a5.18 5.18 0 0 0 5.179-5.18l1.493-12.906c.073-.027.143-.058.216-.085.072-.027.144-.058.215-.086.481-.186.959-.379 1.432-.581.093-.039.185-.082.277-.122.422-.185.842-.373 1.256-.569l.118-.059.011-.005c.044-.021.09-.04.134-.063a39.443 39.443 0 0 0 1.51-.769c.258-.137.516-.27.771-.411.13-.072.258-.15.387-.225l.13-.076c.022-.012.045-.021.066-.034.038-.021.073-.046.111-.067a43.079 43.079 0 0 0 1.741-1.065c.042-.027.083-.055.125-.08.089-.059.179-.114.267-.173a42.918 42.918 0 0 0 3.141-2.281c.07-.055.141-.11.209-.165.116-.096.236-.186.352-.281l11.92 5.159a5.177 5.177 0 0 0 7.074-1.896l8.631-14.948a5.18 5.18 0 0 0-1.897-7.074zM64 82.013c-9.948 0-18.013-8.064-18.013-18.013S54.052 45.986 64 45.986 82.014 54.052 82.014 64 73.948 82.013 64 82.013z" fill="#2f3435"/></svg>