<svg height="1024" width="1024" xmlns="http://www.w3.org/2000/svg"><path d="M716.737 124.056c-71.926 41.686-148.041 96.13-218.436 166.555-45 45.031-81.213 88.78-110.39 129.778L209.538 453.35.047 662.997l186.818 5.815L318.427 537.25c-46.439 96.224-50.536 160.019-50.536 160.019l58.854 58.792s65.827-6.255 162.737-53.163L355.107 837.119l5.88 186.881 209.585-209.521 33.086-179.252c41.403-29.02 85.185-65.046 129.716-109.545 70.425-70.455 124.837-146.541 166.555-218.466-45.97-9.351-88.125-28.488-121.397-61.668-33.275-33.367-52.538-75.523-61.795-121.492zm69.424-37.213c5.004 45 19.952 81.274 44.78 105.98 24.769 24.985 60.98 39.902 106.138 44.844C1003.063 104.323 1023.953 0 1023.953 0S919.63 20.858 786.161 86.843z"/></svg>